# MagicaVoxel @ Ephtracy

# group
o 

# material
mtllib Shiled.mtl
usemtl palette

# normals
vn -1 0 0
vn 1 0 0
vn 0 0 1
vn 0 0 -1
vn 0 -1 0
vn 0 1 0

# texcoords
vt 0.0214844 0.5
vt 0.373047 0.5
vt 0.841797 0.5

# verts
v -0.9 2.4 -1.8
v -0.9 2.4 -1.9
v -0.9 2.4 -2
v -0.9 2.5 -1.7
v -0.9 2.5 -1.8
v -0.9 2.6 -1.7
v -0.9 2.6 -1.8
v -0.9 2.7 -1.8
v -0.9 2.7 -1.9
v -0.9 2.7 -2
v -0.8 2.3 -1.8
v -0.8 2.3 -2
v -0.8 2.4 -1.7
v -0.8 2.4 -1.8
v -0.8 2.4 -1.9
v -0.8 2.4 -2
v -0.8 2.5 -1.7
v -0.8 2.5 -1.8
v -0.8 2.6 -1.7
v -0.8 2.6 -1.8
v -0.8 2.7 -1.7
v -0.8 2.7 -1.8
v -0.8 2.7 -1.9
v -0.8 2.7 -2
v -0.8 2.8 -1.8
v -0.8 2.8 -2
v -0.7 2.2 -1.8
v -0.7 2.2 -2
v -0.7 2.3 -1.8
v -0.7 2.3 -2
v -0.7 2.8 -1.8
v -0.7 2.8 -2
v -0.7 2.9 -1.8
v -0.7 2.9 -2
v -0.6 2 -1.8
v -0.6 2 -2
v -0.6 2.2 -1.8
v -0.6 2.2 -2
v -0.6 2.9 -1.8
v -0.6 2.9 -2
v -0.6 3 -1.8
v -0.6 3 -2
v -0.5 1.8 -1.8
v -0.5 1.8 -2
v -0.5 2 -1.8
v -0.5 2 -2
v -0.5 3 -1.8
v -0.5 3 -2
v -0.5 3.1 -1.8
v -0.5 3.1 -2
v -0.4 1.6 -1.8
v -0.4 1.6 -2
v -0.4 1.8 -1.8
v -0.4 1.8 -2
v -0.4 3.1 -1.8
v -0.4 3.1 -2
v -0.4 3.2 -1.8
v -0.4 3.2 -2
v -0.3 1.4 -1.8
v -0.3 1.4 -2
v -0.3 1.6 -1.8
v -0.3 1.6 -2
v -0.3 3.2 -1.8
v -0.3 3.2 -2
v -0.3 3.3 -1.8
v -0.3 3.3 -2
v -0.2 1.2 -1.8
v -0.2 1.2 -2
v -0.2 1.4 -1.8
v -0.2 1.4 -2
v -0.1 1 -1.7
v -0.1 1 -1.8
v -0.1 1 -1.9
v -0.1 1 -2
v -0.1 1.1 -1.7
v -0.1 1.1 -1.8
v -0.1 1.2 -1.8
v -0.1 1.2 -1.9
v -0.1 1.2 -2
v -0.1 3.2 -1.7
v -0.1 3.2 -1.8
v -0.1 3.3 -1.7
v -0.1 3.3 -1.8
v -0.1 3.3 -1.9
v -0.1 3.3 -2
v -0.1 3.4 -1.9
v -0.1 3.4 -2
v 0 0.9 -1.7
v 0 0.9 -1.8
v 0 0.9 -1.9
v 0 0.9 -2
v 0 1 -1.7
v 0 1 -1.8
v 0 1 -1.9
v 0 1 -2
v 0 1.1 -1.7
v 0 1.1 -1.8
v 0 1.2 -1.7
v 0 1.2 -1.8
v 0 2.5 -1.7
v 0 2.5 -1.8
v 0 2.7 -1.7
v 0 2.7 -1.8
v 0 3.1 -1.7
v 0 3.1 -1.8
v 0 3.2 -1.7
v 0 3.2 -1.8
v 0 3.3 -1.7
v 0 3.3 -1.8
v 0 3.3 -1.9
v 0 3.4 -1.7
v 0 3.4 -1.8
v 0 3.4 -1.9
v 0.8 2.5 -1.7
v 0.8 2.5 -1.8
v 0.8 2.6 -1.7
v 0.8 2.6 -1.8
v 0.9 2.4 -1.7
v 0.9 2.4 -1.8
v 0.9 2.5 -1.7
v 0.9 2.5 -1.8
v 0.9 2.6 -1.7
v 0.9 2.6 -1.8
v 0.9 2.7 -1.7
v 0.9 2.7 -1.8
v -0.7 2.4 -1.7
v -0.7 2.4 -1.8
v -0.7 2.5 -1.7
v -0.7 2.5 -1.8
v -0.7 2.6 -1.7
v -0.7 2.6 -1.8
v -0.7 2.7 -1.7
v -0.7 2.7 -1.8
v -0.6 2.5 -1.7
v -0.6 2.5 -1.8
v -0.6 2.6 -1.7
v -0.6 2.6 -1.8
v 0.2 0.9 -1.7
v 0.2 0.9 -1.8
v 0.2 0.9 -1.9
v 0.2 0.9 -2
v 0.2 1 -1.7
v 0.2 1 -1.8
v 0.2 1 -1.9
v 0.2 1 -2
v 0.2 1.1 -1.7
v 0.2 1.1 -1.8
v 0.2 1.2 -1.7
v 0.2 1.2 -1.8
v 0.2 2.5 -1.7
v 0.2 2.5 -1.8
v 0.2 2.7 -1.7
v 0.2 2.7 -1.8
v 0.2 3.1 -1.7
v 0.2 3.1 -1.8
v 0.2 3.2 -1.7
v 0.2 3.2 -1.8
v 0.2 3.3 -1.7
v 0.2 3.3 -1.8
v 0.2 3.3 -1.9
v 0.2 3.4 -1.7
v 0.2 3.4 -1.8
v 0.2 3.4 -1.9
v 0.3 1 -1.7
v 0.3 1 -1.8
v 0.3 1 -1.9
v 0.3 1 -2
v 0.3 1.1 -1.7
v 0.3 1.1 -1.8
v 0.3 1.2 -1.8
v 0.3 1.2 -1.9
v 0.3 1.2 -2
v 0.3 2.7 -1.8
v 0.3 2.7 -1.9
v 0.3 3.2 -1.7
v 0.3 3.2 -1.8
v 0.3 3.3 -1.7
v 0.3 3.3 -1.8
v 0.3 3.3 -1.9
v 0.3 3.3 -2
v 0.3 3.4 -1.9
v 0.3 3.4 -2
v 0.4 1.2 -1.8
v 0.4 1.2 -2
v 0.4 1.4 -1.8
v 0.4 1.4 -2
v 0.5 1.4 -1.8
v 0.5 1.4 -2
v 0.5 1.6 -1.8
v 0.5 1.6 -2
v 0.5 3.2 -1.9
v 0.5 3.2 -2
v 0.5 3.3 -1.9
v 0.5 3.3 -2
v 0.6 1.6 -1.8
v 0.6 1.6 -2
v 0.6 1.9 -1.8
v 0.6 1.9 -2
v 0.6 3.1 -1.9
v 0.6 3.1 -2
v 0.6 3.2 -1.9
v 0.6 3.2 -2
v 0.7 1.9 -1.8
v 0.7 1.9 -2
v 0.7 2.1 -1.8
v 0.7 2.1 -2
v 0.7 3 -1.9
v 0.7 3 -2
v 0.7 3.1 -1.9
v 0.7 3.1 -2
v 0.8 2.1 -1.8
v 0.8 2.1 -2
v 0.8 2.3 -1.8
v 0.8 2.3 -2
v 0.8 2.9 -1.9
v 0.8 2.9 -2
v 0.8 3 -1.9
v 0.8 3 -2
v 0.9 2.8 -1.9
v 0.9 2.8 -2
v 0.9 2.9 -1.9
v 0.9 2.9 -2
v 1 2.3 -1.8
v 1 2.3 -2
v 1 2.4 -1.7
v 1 2.4 -1.8
v 1 2.4 -1.9
v 1 2.4 -2
v 1 2.5 -1.7
v 1 2.5 -1.8
v 1 2.6 -1.7
v 1 2.6 -1.8
v 1 2.7 -1.7
v 1 2.7 -1.8
v 1 2.7 -1.9
v 1 2.7 -2
v 1 2.8 -1.9
v 1 2.8 -2
v 1.1 2.4 -1.8
v 1.1 2.4 -1.9
v 1.1 2.4 -2
v 1.1 2.5 -1.7
v 1.1 2.5 -1.8
v 1.1 2.6 -1.7
v 1.1 2.6 -1.8
v 1.1 2.7 -1.8
v 1.1 2.7 -1.9
v 1.1 2.7 -2
v -0.9 2.5 -1.7
v -0.9 2.6 -1.7
v -0.8 2.4 -1.7
v -0.8 2.5 -1.7
v -0.8 2.6 -1.7
v -0.8 2.7 -1.7
v -0.7 2.4 -1.7
v -0.7 2.5 -1.7
v -0.7 2.6 -1.7
v -0.7 2.7 -1.7
v -0.6 2.5 -1.7
v -0.6 2.6 -1.7
v -0.1 1 -1.7
v -0.1 1.1 -1.7
v -0.1 3.2 -1.7
v -0.1 3.3 -1.7
v 0 0.9 -1.7
v 0 1 -1.7
v 0 1.1 -1.7
v 0 1.2 -1.7
v 0 2.5 -1.7
v 0 2.7 -1.7
v 0 3.1 -1.7
v 0 3.2 -1.7
v 0 3.3 -1.7
v 0 3.4 -1.7
v 0.2 0.9 -1.7
v 0.2 1 -1.7
v 0.2 1.1 -1.7
v 0.2 1.2 -1.7
v 0.2 2.5 -1.7
v 0.2 2.7 -1.7
v 0.2 3.1 -1.7
v 0.2 3.2 -1.7
v 0.2 3.3 -1.7
v 0.2 3.4 -1.7
v 0.3 1 -1.7
v 0.3 1.1 -1.7
v 0.3 3.2 -1.7
v 0.3 3.3 -1.7
v 0.8 2.5 -1.7
v 0.8 2.6 -1.7
v 0.9 2.4 -1.7
v 0.9 2.5 -1.7
v 0.9 2.6 -1.7
v 0.9 2.7 -1.7
v 1 2.4 -1.7
v 1 2.5 -1.7
v 1 2.6 -1.7
v 1 2.7 -1.7
v 1.1 2.5 -1.7
v 1.1 2.6 -1.7
v -0.9 2.4 -1.8
v -0.9 2.5 -1.8
v -0.9 2.6 -1.8
v -0.9 2.7 -1.8
v -0.8 2.3 -1.8
v -0.8 2.4 -1.8
v -0.8 2.5 -1.8
v -0.8 2.6 -1.8
v -0.8 2.7 -1.8
v -0.8 2.8 -1.8
v -0.7 2.2 -1.8
v -0.7 2.3 -1.8
v -0.7 2.4 -1.8
v -0.7 2.5 -1.8
v -0.7 2.6 -1.8
v -0.7 2.7 -1.8
v -0.7 2.8 -1.8
v -0.7 2.9 -1.8
v -0.6 2 -1.8
v -0.6 2.2 -1.8
v -0.6 2.5 -1.8
v -0.6 2.6 -1.8
v -0.6 2.9 -1.8
v -0.6 3 -1.8
v -0.5 1.8 -1.8
v -0.5 2 -1.8
v -0.5 3 -1.8
v -0.5 3.1 -1.8
v -0.4 1.6 -1.8
v -0.4 1.8 -1.8
v -0.4 3.1 -1.8
v -0.4 3.2 -1.8
v -0.3 1.4 -1.8
v -0.3 1.6 -1.8
v -0.3 3.2 -1.8
v -0.3 3.3 -1.8
v -0.2 1.2 -1.8
v -0.2 1.4 -1.8
v -0.1 1.1 -1.8
v -0.1 1.2 -1.8
v -0.1 2.4 -1.8
v -0.1 2.7 -1.8
v -0.1 3.2 -1.8
v -0.1 3.3 -1.8
v 0 1.1 -1.8
v 0 1.2 -1.8
v 0 2.5 -1.8
v 0 2.7 -1.8
v 0 3.1 -1.8
v 0 3.2 -1.8
v 0.2 1.1 -1.8
v 0.2 1.2 -1.8
v 0.2 2.5 -1.8
v 0.2 2.7 -1.8
v 0.2 3.1 -1.8
v 0.2 3.2 -1.8
v 0.3 1.1 -1.8
v 0.3 1.2 -1.8
v 0.3 2.4 -1.8
v 0.3 2.7 -1.8
v 0.3 3.2 -1.8
v 0.4 1.2 -1.8
v 0.4 1.4 -1.8
v 0.5 1.4 -1.8
v 0.5 1.6 -1.8
v 0.6 1.6 -1.8
v 0.6 1.9 -1.8
v 0.7 1.9 -1.8
v 0.7 2.1 -1.8
v 0.8 2.1 -1.8
v 0.8 2.3 -1.8
v 0.8 2.5 -1.8
v 0.8 2.6 -1.8
v 0.9 2.4 -1.8
v 0.9 2.5 -1.8
v 0.9 2.6 -1.8
v 0.9 2.7 -1.8
v 1 2.3 -1.8
v 1 2.4 -1.8
v 1 2.5 -1.8
v 1 2.6 -1.8
v 1 2.7 -1.8
v 1.1 2.4 -1.8
v 1.1 2.5 -1.8
v 1.1 2.6 -1.8
v 1.1 2.7 -1.8
v -0.1 3.3 -1.9
v -0.1 3.4 -1.9
v 0 3.3 -1.9
v 0 3.4 -1.9
v 0.2 3.3 -1.9
v 0.2 3.4 -1.9
v 0.3 2.7 -1.9
v 0.3 3.3 -1.9
v 0.3 3.4 -1.9
v 0.5 3.2 -1.9
v 0.5 3.3 -1.9
v 0.6 3.1 -1.9
v 0.6 3.2 -1.9
v 0.7 3 -1.9
v 0.7 3.1 -1.9
v 0.8 2.9 -1.9
v 0.8 3 -1.9
v 0.9 2.8 -1.9
v 0.9 2.9 -1.9
v 1 2.7 -1.9
v 1 2.8 -1.9
v -0.9 2.4 -2
v -0.9 2.7 -2
v -0.8 2.3 -2
v -0.8 2.4 -2
v -0.8 2.7 -2
v -0.8 2.8 -2
v -0.7 2.2 -2
v -0.7 2.3 -2
v -0.7 2.8 -2
v -0.7 2.9 -2
v -0.6 2 -2
v -0.6 2.2 -2
v -0.6 2.9 -2
v -0.6 3 -2
v -0.5 1.8 -2
v -0.5 2 -2
v -0.5 3 -2
v -0.5 3.1 -2
v -0.4 1.6 -2
v -0.4 1.8 -2
v -0.4 3.1 -2
v -0.4 3.2 -2
v -0.3 1.4 -2
v -0.3 1.6 -2
v -0.3 3.2 -2
v -0.3 3.3 -2
v -0.2 1.2 -2
v -0.2 1.4 -2
v -0.1 1 -2
v -0.1 1.2 -2
v -0.1 3.3 -2
v -0.1 3.4 -2
v 0 0.9 -2
v 0 1 -2
v 0.2 0.9 -2
v 0.2 1 -2
v 0.3 1 -2
v 0.3 1.2 -2
v 0.3 3.3 -2
v 0.3 3.4 -2
v 0.4 1.2 -2
v 0.4 1.4 -2
v 0.5 1.4 -2
v 0.5 1.6 -2
v 0.5 3.2 -2
v 0.5 3.3 -2
v 0.6 1.6 -2
v 0.6 1.9 -2
v 0.6 3.1 -2
v 0.6 3.2 -2
v 0.7 1.9 -2
v 0.7 2.1 -2
v 0.7 3 -2
v 0.7 3.1 -2
v 0.8 2.1 -2
v 0.8 2.3 -2
v 0.8 2.9 -2
v 0.8 3 -2
v 0.9 2.8 -2
v 0.9 2.9 -2
v 1 2.3 -2
v 1 2.4 -2
v 1 2.7 -2
v 1 2.8 -2
v 1.1 2.4 -2
v 1.1 2.7 -2
v 0 0.9 -1.7
v 0.2 0.9 -1.7
v 0 0.9 -1.8
v 0.2 0.9 -1.8
v 0 0.9 -1.9
v 0.2 0.9 -1.9
v 0 0.9 -2
v 0.2 0.9 -2
v -0.1 1 -1.7
v 0 1 -1.7
v 0.2 1 -1.7
v 0.3 1 -1.7
v -0.1 1 -1.8
v 0 1 -1.8
v 0.2 1 -1.8
v 0.3 1 -1.8
v -0.1 1 -1.9
v 0 1 -1.9
v 0.2 1 -1.9
v 0.3 1 -1.9
v -0.1 1 -2
v 0 1 -2
v 0.2 1 -2
v 0.3 1 -2
v -0.2 1.2 -1.8
v -0.1 1.2 -1.8
v 0.3 1.2 -1.8
v 0.4 1.2 -1.8
v -0.1 1.2 -1.9
v 0.3 1.2 -1.9
v -0.2 1.2 -2
v -0.1 1.2 -2
v 0.3 1.2 -2
v 0.4 1.2 -2
v -0.3 1.4 -1.8
v -0.2 1.4 -1.8
v 0.4 1.4 -1.8
v 0.5 1.4 -1.8
v -0.3 1.4 -2
v -0.2 1.4 -2
v 0.4 1.4 -2
v 0.5 1.4 -2
v -0.4 1.6 -1.8
v -0.3 1.6 -1.8
v 0.5 1.6 -1.8
v 0.6 1.6 -1.8
v -0.4 1.6 -2
v -0.3 1.6 -2
v 0.5 1.6 -2
v 0.6 1.6 -2
v -0.5 1.8 -1.8
v -0.4 1.8 -1.8
v -0.5 1.8 -2
v -0.4 1.8 -2
v 0.6 1.9 -1.8
v 0.7 1.9 -1.8
v 0.6 1.9 -2
v 0.7 1.9 -2
v -0.6 2 -1.8
v -0.5 2 -1.8
v -0.6 2 -2
v -0.5 2 -2
v 0.7 2.1 -1.8
v 0.8 2.1 -1.8
v 0.7 2.1 -2
v 0.8 2.1 -2
v -0.7 2.2 -1.8
v -0.6 2.2 -1.8
v -0.7 2.2 -2
v -0.6 2.2 -2
v -0.8 2.3 -1.8
v -0.7 2.3 -1.8
v 0.8 2.3 -1.8
v 1 2.3 -1.8
v -0.8 2.3 -2
v -0.7 2.3 -2
v 0.8 2.3 -2
v 1 2.3 -2
v -0.8 2.4 -1.7
v -0.7 2.4 -1.7
v 0.9 2.4 -1.7
v 1 2.4 -1.7
v -0.9 2.4 -1.8
v -0.8 2.4 -1.8
v -0.7 2.4 -1.8
v 0.9 2.4 -1.8
v 1 2.4 -1.8
v 1.1 2.4 -1.8
v -0.9 2.4 -1.9
v -0.8 2.4 -1.9
v 1 2.4 -1.9
v 1.1 2.4 -1.9
v -0.9 2.4 -2
v -0.8 2.4 -2
v 1 2.4 -2
v 1.1 2.4 -2
v -0.9 2.5 -1.7
v -0.8 2.5 -1.7
v -0.7 2.5 -1.7
v -0.6 2.5 -1.7
v 0 2.5 -1.7
v 0.2 2.5 -1.7
v 0.8 2.5 -1.7
v 0.9 2.5 -1.7
v 1 2.5 -1.7
v 1.1 2.5 -1.7
v -0.9 2.5 -1.8
v -0.8 2.5 -1.8
v -0.7 2.5 -1.8
v -0.6 2.5 -1.8
v 0 2.5 -1.8
v 0.2 2.5 -1.8
v 0.8 2.5 -1.8
v 0.9 2.5 -1.8
v 1 2.5 -1.8
v 1.1 2.5 -1.8
v 0 3.1 -1.7
v 0.2 3.1 -1.7
v 0 3.1 -1.8
v 0.2 3.1 -1.8
v -0.1 3.2 -1.7
v 0 3.2 -1.7
v 0.2 3.2 -1.7
v 0.3 3.2 -1.7
v -0.1 3.2 -1.8
v 0 3.2 -1.8
v 0.2 3.2 -1.8
v 0.3 3.2 -1.8
v -0.1 1.1 -1.7
v 0 1.1 -1.7
v 0.2 1.1 -1.7
v 0.3 1.1 -1.7
v -0.1 1.1 -1.8
v 0 1.1 -1.8
v 0.2 1.1 -1.8
v 0.3 1.1 -1.8
v 0 1.2 -1.7
v 0.2 1.2 -1.7
v 0 1.2 -1.8
v 0.2 1.2 -1.8
v -0.9 2.6 -1.7
v -0.8 2.6 -1.7
v -0.7 2.6 -1.7
v -0.6 2.6 -1.7
v 0.8 2.6 -1.7
v 0.9 2.6 -1.7
v 1 2.6 -1.7
v 1.1 2.6 -1.7
v -0.9 2.6 -1.8
v -0.8 2.6 -1.8
v -0.7 2.6 -1.8
v -0.6 2.6 -1.8
v 0.8 2.6 -1.8
v 0.9 2.6 -1.8
v 1 2.6 -1.8
v 1.1 2.6 -1.8
v -0.8 2.7 -1.7
v -0.7 2.7 -1.7
v 0 2.7 -1.7
v 0.2 2.7 -1.7
v 0.9 2.7 -1.7
v 1 2.7 -1.7
v -0.9 2.7 -1.8
v -0.8 2.7 -1.8
v -0.7 2.7 -1.8
v 0 2.7 -1.8
v 0.2 2.7 -1.8
v 0.3 2.7 -1.8
v 0.9 2.7 -1.8
v 1 2.7 -1.8
v 1.1 2.7 -1.8
v -0.9 2.7 -1.9
v -0.8 2.7 -1.9
v 0.3 2.7 -1.9
v 1 2.7 -1.9
v 1.1 2.7 -1.9
v -0.9 2.7 -2
v -0.8 2.7 -2
v 1 2.7 -2
v 1.1 2.7 -2
v -0.8 2.8 -1.8
v -0.7 2.8 -1.8
v 0.9 2.8 -1.9
v 1 2.8 -1.9
v -0.8 2.8 -2
v -0.7 2.8 -2
v 0.9 2.8 -2
v 1 2.8 -2
v -0.7 2.9 -1.8
v -0.6 2.9 -1.8
v 0.8 2.9 -1.9
v 0.9 2.9 -1.9
v -0.7 2.9 -2
v -0.6 2.9 -2
v 0.8 2.9 -2
v 0.9 2.9 -2
v -0.6 3 -1.8
v -0.5 3 -1.8
v 0.7 3 -1.9
v 0.8 3 -1.9
v -0.6 3 -2
v -0.5 3 -2
v 0.7 3 -2
v 0.8 3 -2
v -0.5 3.1 -1.8
v -0.4 3.1 -1.8
v 0.6 3.1 -1.9
v 0.7 3.1 -1.9
v -0.5 3.1 -2
v -0.4 3.1 -2
v 0.6 3.1 -2
v 0.7 3.1 -2
v -0.4 3.2 -1.8
v -0.3 3.2 -1.8
v 0.5 3.2 -1.9
v 0.6 3.2 -1.9
v -0.4 3.2 -2
v -0.3 3.2 -2
v 0.5 3.2 -2
v 0.6 3.2 -2
v -0.1 3.3 -1.7
v 0 3.3 -1.7
v 0.2 3.3 -1.7
v 0.3 3.3 -1.7
v -0.3 3.3 -1.8
v -0.1 3.3 -1.8
v 0 3.3 -1.8
v 0.2 3.3 -1.8
v 0.3 3.3 -1.8
v -0.1 3.3 -1.9
v 0 3.3 -1.9
v 0.2 3.3 -1.9
v 0.3 3.3 -1.9
v 0.5 3.3 -1.9
v -0.3 3.3 -2
v -0.1 3.3 -2
v 0.3 3.3 -2
v 0.5 3.3 -2
v 0 3.4 -1.7
v 0.2 3.4 -1.7
v 0 3.4 -1.8
v 0.2 3.4 -1.8
v -0.1 3.4 -1.9
v 0 3.4 -1.9
v 0.2 3.4 -1.9
v 0.3 3.4 -1.9
v -0.1 3.4 -2
v 0.3 3.4 -2

# faces
f 5/1/1 2/1/1 1/1/1
f 6/3/1 5/3/1 4/3/1
f 7/1/1 2/1/1 5/1/1
f 7/3/1 5/3/1 6/3/1
f 8/1/1 2/1/1 7/1/1
f 9/2/1 3/2/1 2/2/1
f 9/1/1 2/1/1 8/1/1
f 10/2/1 3/2/1 9/2/1
f 14/2/1 12/2/1 11/2/1
f 15/2/1 12/2/1 14/2/1
f 16/2/1 12/2/1 15/2/1
f 17/3/1 14/3/1 13/3/1
f 18/3/1 14/3/1 17/3/1
f 21/3/1 20/3/1 19/3/1
f 22/3/1 20/3/1 21/3/1
f 25/2/1 24/2/1 23/2/1
f 25/2/1 23/2/1 22/2/1
f 26/2/1 24/2/1 25/2/1
f 29/2/1 28/2/1 27/2/1
f 30/2/1 28/2/1 29/2/1
f 33/2/1 32/2/1 31/2/1
f 34/2/1 32/2/1 33/2/1
f 37/2/1 36/2/1 35/2/1
f 38/2/1 36/2/1 37/2/1
f 41/2/1 40/2/1 39/2/1
f 42/2/1 40/2/1 41/2/1
f 45/2/1 44/2/1 43/2/1
f 46/2/1 44/2/1 45/2/1
f 49/2/1 48/2/1 47/2/1
f 50/2/1 48/2/1 49/2/1
f 53/2/1 52/2/1 51/2/1
f 54/2/1 52/2/1 53/2/1
f 57/2/1 56/2/1 55/2/1
f 58/2/1 56/2/1 57/2/1
f 61/2/1 60/2/1 59/2/1
f 62/2/1 60/2/1 61/2/1
f 65/2/1 64/2/1 63/2/1
f 66/2/1 64/2/1 65/2/1
f 69/2/1 68/2/1 67/2/1
f 70/2/1 68/2/1 69/2/1
f 75/3/1 72/3/1 71/3/1
f 76/1/1 73/1/1 72/1/1
f 76/3/1 72/3/1 75/3/1
f 77/1/1 73/1/1 76/1/1
f 78/2/1 74/2/1 73/2/1
f 78/1/1 73/1/1 77/1/1
f 79/2/1 74/2/1 78/2/1
f 82/3/1 81/3/1 80/3/1
f 83/3/1 81/3/1 82/3/1
f 86/2/1 85/2/1 84/2/1
f 87/2/1 85/2/1 86/2/1
f 92/3/1 89/3/1 88/3/1
f 93/1/1 90/1/1 89/1/1
f 93/3/1 89/3/1 92/3/1
f 94/2/1 91/2/1 90/2/1
f 94/1/1 90/1/1 93/1/1
f 95/2/1 91/2/1 94/2/1
f 98/3/1 97/3/1 96/3/1
f 99/3/1 97/3/1 98/3/1
f 102/3/1 101/3/1 100/3/1
f 103/3/1 101/3/1 102/3/1
f 106/3/1 105/3/1 104/3/1
f 107/3/1 105/3/1 106/3/1
f 111/3/1 109/3/1 108/3/1
f 112/1/1 110/1/1 109/1/1
f 112/3/1 109/3/1 111/3/1
f 113/1/1 110/1/1 112/1/1
f 116/3/1 115/3/1 114/3/1
f 117/3/1 115/3/1 116/3/1
f 120/3/1 119/3/1 118/3/1
f 121/3/1 119/3/1 120/3/1
f 124/3/1 123/3/1 122/3/1
f 125/3/1 123/3/1 124/3/1
f 126/3/2 127/3/2 128/3/2
f 128/3/2 127/3/2 129/3/2
f 130/3/2 131/3/2 132/3/2
f 132/3/2 131/3/2 133/3/2
f 134/3/2 135/3/2 136/3/2
f 136/3/2 135/3/2 137/3/2
f 138/3/2 139/3/2 142/3/2
f 139/1/2 140/1/2 143/1/2
f 142/3/2 139/3/2 143/3/2
f 140/2/2 141/2/2 144/2/2
f 143/1/2 140/1/2 144/1/2
f 144/2/2 141/2/2 145/2/2
f 146/3/2 147/3/2 148/3/2
f 148/3/2 147/3/2 149/3/2
f 150/3/2 151/3/2 152/3/2
f 152/3/2 151/3/2 153/3/2
f 154/3/2 155/3/2 156/3/2
f 156/3/2 155/3/2 157/3/2
f 158/3/2 159/3/2 161/3/2
f 159/1/2 160/1/2 162/1/2
f 161/3/2 159/3/2 162/3/2
f 162/1/2 160/1/2 163/1/2
f 164/3/2 165/3/2 168/3/2
f 165/1/2 166/1/2 169/1/2
f 168/3/2 165/3/2 169/3/2
f 169/1/2 166/1/2 170/1/2
f 166/2/2 167/2/2 171/2/2
f 170/1/2 166/1/2 171/1/2
f 171/2/2 167/2/2 172/2/2
f 173/1/2 174/1/2 176/1/2
f 175/3/2 176/3/2 177/3/2
f 176/1/2 174/1/2 178/1/2
f 177/3/2 176/3/2 178/3/2
f 178/1/2 174/1/2 179/1/2
f 179/2/2 180/2/2 181/2/2
f 181/2/2 180/2/2 182/2/2
f 183/2/2 184/2/2 185/2/2
f 185/2/2 184/2/2 186/2/2
f 187/2/2 188/2/2 189/2/2
f 189/2/2 188/2/2 190/2/2
f 191/2/2 192/2/2 193/2/2
f 193/2/2 192/2/2 194/2/2
f 195/2/2 196/2/2 197/2/2
f 197/2/2 196/2/2 198/2/2
f 199/2/2 200/2/2 201/2/2
f 201/2/2 200/2/2 202/2/2
f 203/2/2 204/2/2 205/2/2
f 205/2/2 204/2/2 206/2/2
f 207/2/2 208/2/2 209/2/2
f 209/2/2 208/2/2 210/2/2
f 211/2/2 212/2/2 213/2/2
f 213/2/2 212/2/2 214/2/2
f 215/2/2 216/2/2 217/2/2
f 217/2/2 216/2/2 218/2/2
f 219/2/2 220/2/2 221/2/2
f 221/2/2 220/2/2 222/2/2
f 223/2/2 224/2/2 226/2/2
f 226/2/2 224/2/2 227/2/2
f 227/2/2 224/2/2 228/2/2
f 225/3/2 226/3/2 229/3/2
f 229/3/2 226/3/2 230/3/2
f 231/3/2 232/3/2 233/3/2
f 233/3/2 232/3/2 234/3/2
f 235/2/2 236/2/2 237/2/2
f 237/2/2 236/2/2 238/2/2
f 239/1/2 240/1/2 243/1/2
f 242/3/2 243/3/2 244/3/2
f 243/1/2 240/1/2 245/1/2
f 244/3/2 243/3/2 245/3/2
f 245/1/2 240/1/2 246/1/2
f 240/2/2 241/2/2 247/2/2
f 246/1/2 240/1/2 247/1/2
f 247/2/2 241/2/2 248/2/2
f 252/3/3 250/3/3 249/3/3
f 253/3/3 250/3/3 252/3/3
f 255/3/3 252/3/3 251/3/3
f 255/3/3 254/3/3 253/3/3
f 255/3/3 253/3/3 252/3/3
f 256/3/3 254/3/3 255/3/3
f 257/3/3 254/3/3 256/3/3
f 258/3/3 254/3/3 257/3/3
f 259/3/3 257/3/3 256/3/3
f 260/3/3 257/3/3 259/3/3
f 266/3/3 262/3/3 261/3/3
f 267/3/3 262/3/3 266/3/3
f 272/3/3 264/3/3 263/3/3
f 273/3/3 264/3/3 272/3/3
f 275/3/3 266/3/3 265/3/3
f 275/3/3 267/3/3 266/3/3
f 275/3/3 268/3/3 267/3/3
f 276/3/3 268/3/3 275/3/3
f 277/3/3 268/3/3 276/3/3
f 278/3/3 268/3/3 277/3/3
f 279/3/3 270/3/3 269/3/3
f 280/3/3 270/3/3 279/3/3
f 281/3/3 274/3/3 273/3/3
f 281/3/3 273/3/3 272/3/3
f 281/3/3 272/3/3 271/3/3
f 282/3/3 274/3/3 281/3/3
f 283/3/3 274/3/3 282/3/3
f 284/3/3 274/3/3 283/3/3
f 285/3/3 277/3/3 276/3/3
f 286/3/3 277/3/3 285/3/3
f 287/3/3 283/3/3 282/3/3
f 288/3/3 283/3/3 287/3/3
f 292/3/3 290/3/3 289/3/3
f 293/3/3 290/3/3 292/3/3
f 295/3/3 292/3/3 291/3/3
f 295/3/3 294/3/3 293/3/3
f 295/3/3 293/3/3 292/3/3
f 296/3/3 294/3/3 295/3/3
f 297/3/3 294/3/3 296/3/3
f 298/3/3 294/3/3 297/3/3
f 299/3/3 297/3/3 296/3/3
f 300/3/3 297/3/3 299/3/3
f 306/1/3 302/1/3 301/1/3
f 307/1/3 302/1/3 306/1/3
f 308/1/3 304/1/3 303/1/3
f 309/1/3 304/1/3 308/1/3
f 312/2/3 306/2/3 305/2/3
f 313/2/3 306/2/3 312/2/3
f 316/2/3 310/2/3 309/2/3
f 317/2/3 310/2/3 316/2/3
f 320/2/3 312/2/3 311/2/3
f 320/2/3 313/2/3 312/2/3
f 321/1/3 314/1/3 313/1/3
f 322/1/3 316/1/3 315/1/3
f 323/2/3 318/2/3 317/2/3
f 323/2/3 317/2/3 316/2/3
f 326/2/3 320/2/3 319/2/3
f 327/2/3 324/2/3 323/2/3
f 330/2/3 326/2/3 325/2/3
f 331/2/3 328/2/3 327/2/3
f 334/2/3 330/2/3 329/2/3
f 335/2/3 332/2/3 331/2/3
f 338/2/3 334/2/3 333/2/3
f 340/2/3 338/2/3 337/2/3
f 341/1/3 322/1/3 321/1/3
f 341/1/3 321/1/3 313/1/3
f 341/2/3 338/2/3 340/2/3
f 341/2/3 313/2/3 320/2/3
f 341/2/3 334/2/3 338/2/3
f 341/2/3 320/2/3 326/2/3
f 341/2/3 326/2/3 330/2/3
f 341/2/3 330/2/3 334/2/3
f 342/2/3 336/2/3 335/2/3
f 342/1/3 322/1/3 341/1/3
f 342/1/3 316/1/3 322/1/3
f 342/2/3 331/2/3 327/2/3
f 342/2/3 323/2/3 316/2/3
f 342/2/3 335/2/3 331/2/3
f 342/2/3 327/2/3 323/2/3
f 343/2/3 336/2/3 342/2/3
f 344/2/3 336/2/3 343/2/3
f 345/1/3 341/1/3 340/1/3
f 345/1/3 340/1/3 339/1/3
f 345/1/3 343/1/3 342/1/3
f 345/1/3 342/1/3 341/1/3
f 346/1/3 343/1/3 345/1/3
f 347/1/3 343/1/3 346/1/3
f 348/1/3 343/1/3 347/1/3
f 349/1/3 343/1/3 348/1/3
f 350/1/3 343/1/3 349/1/3
f 352/1/3 347/1/3 346/1/3
f 353/1/3 347/1/3 352/1/3
f 354/1/3 349/1/3 348/1/3
f 355/1/3 349/1/3 354/1/3
f 357/1/3 353/1/3 352/1/3
f 357/1/3 356/1/3 355/1/3
f 357/1/3 355/1/3 354/1/3
f 357/1/3 354/1/3 353/1/3
f 357/1/3 352/1/3 351/1/3
f 358/1/3 356/1/3 357/1/3
f 359/1/3 356/1/3 358/1/3
f 360/1/3 356/1/3 359/1/3
f 361/1/3 356/1/3 360/1/3
f 362/2/3 359/2/3 358/2/3
f 363/2/3 359/2/3 362/2/3
f 364/2/3 359/2/3 363/2/3
f 365/2/3 359/2/3 364/2/3
f 366/2/3 359/2/3 365/2/3
f 367/2/3 359/2/3 366/2/3
f 368/2/3 359/2/3 367/2/3
f 369/2/3 359/2/3 368/2/3
f 370/2/3 359/2/3 369/2/3
f 371/2/3 359/2/3 370/2/3
f 372/1/3 360/1/3 359/1/3
f 373/1/3 360/1/3 372/1/3
f 374/2/3 359/2/3 371/2/3
f 374/1/3 372/1/3 359/1/3
f 375/1/3 372/1/3 374/1/3
f 376/1/3 360/1/3 373/1/3
f 377/1/3 360/1/3 376/1/3
f 378/2/3 374/2/3 371/2/3
f 379/2/3 374/2/3 378/2/3
f 383/1/3 380/1/3 379/1/3
f 384/1/3 380/1/3 383/1/3
f 385/1/3 382/1/3 381/1/3
f 386/1/3 382/1/3 385/1/3
f 389/2/3 388/2/3 387/2/3
f 390/2/3 388/2/3 389/2/3
f 394/2/3 392/2/3 391/2/3
f 395/2/3 392/2/3 394/2/3
f 396/2/3 394/2/3 393/2/3
f 397/2/3 394/2/3 396/2/3
f 398/2/3 396/2/3 393/2/3
f 399/2/3 396/2/3 398/2/3
f 400/2/3 398/2/3 393/2/3
f 401/2/3 398/2/3 400/2/3
f 402/2/3 400/2/3 393/2/3
f 403/2/3 400/2/3 402/2/3
f 404/2/3 402/2/3 393/2/3
f 405/2/3 402/2/3 404/2/3
f 406/2/3 404/2/3 393/2/3
f 407/2/3 404/2/3 406/2/3
f 408/2/4 409/2/4 411/2/4
f 411/2/4 409/2/4 412/2/4
f 410/2/4 411/2/4 415/2/4
f 412/2/4 413/2/4 415/2/4
f 411/2/4 412/2/4 415/2/4
f 415/2/4 413/2/4 416/2/4
f 414/2/4 415/2/4 419/2/4
f 416/2/4 417/2/4 419/2/4
f 415/2/4 416/2/4 419/2/4
f 419/2/4 417/2/4 420/2/4
f 418/2/4 419/2/4 423/2/4
f 420/2/4 421/2/4 423/2/4
f 419/2/4 420/2/4 423/2/4
f 423/2/4 421/2/4 424/2/4
f 422/2/4 423/2/4 427/2/4
f 424/2/4 425/2/4 427/2/4
f 423/2/4 424/2/4 427/2/4
f 427/2/4 425/2/4 428/2/4
f 426/2/4 427/2/4 431/2/4
f 428/2/4 429/2/4 431/2/4
f 427/2/4 428/2/4 431/2/4
f 431/2/4 429/2/4 432/2/4
f 430/2/4 431/2/4 435/2/4
f 432/2/4 433/2/4 435/2/4
f 431/2/4 432/2/4 435/2/4
f 434/2/4 435/2/4 437/2/4
f 435/2/4 433/2/4 438/2/4
f 437/2/4 435/2/4 438/2/4
f 436/2/4 437/2/4 441/2/4
f 438/2/4 439/2/4 441/2/4
f 437/2/4 438/2/4 441/2/4
f 440/2/4 441/2/4 442/2/4
f 441/2/4 439/2/4 443/2/4
f 442/2/4 441/2/4 443/2/4
f 443/2/4 439/2/4 444/2/4
f 444/2/4 439/2/4 445/2/4
f 445/2/4 439/2/4 446/2/4
f 446/2/4 439/2/4 447/2/4
f 445/2/4 446/2/4 448/2/4
f 448/2/4 446/2/4 449/2/4
f 449/2/4 446/2/4 450/2/4
f 450/2/4 446/2/4 451/2/4
f 451/2/4 446/2/4 452/2/4
f 452/2/4 446/2/4 453/2/4
f 451/2/4 452/2/4 454/2/4
f 454/2/4 452/2/4 455/2/4
f 455/2/4 452/2/4 456/2/4
f 456/2/4 452/2/4 457/2/4
f 455/2/4 456/2/4 458/2/4
f 458/2/4 456/2/4 459/2/4
f 459/2/4 456/2/4 460/2/4
f 460/2/4 456/2/4 461/2/4
f 459/2/4 460/2/4 462/2/4
f 462/2/4 460/2/4 463/2/4
f 463/2/4 460/2/4 464/2/4
f 464/2/4 460/2/4 465/2/4
f 463/2/4 464/2/4 466/2/4
f 466/2/4 464/2/4 467/2/4
f 463/2/4 466/2/4 468/2/4
f 468/2/4 466/2/4 469/2/4
f 469/2/4 466/2/4 470/2/4
f 470/2/4 466/2/4 471/2/4
f 469/2/4 470/2/4 472/2/4
f 472/2/4 470/2/4 473/2/4
f 476/3/5 475/3/5 474/3/5
f 477/3/5 475/3/5 476/3/5
f 478/1/5 477/1/5 476/1/5
f 479/1/5 477/1/5 478/1/5
f 480/2/5 479/2/5 478/2/5
f 481/2/5 479/2/5 480/2/5
f 486/3/5 483/3/5 482/3/5
f 487/3/5 483/3/5 486/3/5
f 488/3/5 485/3/5 484/3/5
f 489/3/5 485/3/5 488/3/5
f 490/1/5 487/1/5 486/1/5
f 491/1/5 487/1/5 490/1/5
f 492/1/5 489/1/5 488/1/5
f 493/1/5 489/1/5 492/1/5
f 494/2/5 491/2/5 490/2/5
f 495/2/5 491/2/5 494/2/5
f 496/2/5 493/2/5 492/2/5
f 497/2/5 493/2/5 496/2/5
f 502/2/5 499/2/5 498/2/5
f 503/2/5 501/2/5 500/2/5
f 504/2/5 502/2/5 498/2/5
f 505/2/5 502/2/5 504/2/5
f 506/2/5 501/2/5 503/2/5
f 507/2/5 501/2/5 506/2/5
f 512/2/5 509/2/5 508/2/5
f 513/2/5 509/2/5 512/2/5
f 514/2/5 511/2/5 510/2/5
f 515/2/5 511/2/5 514/2/5
f 520/2/5 517/2/5 516/2/5
f 521/2/5 517/2/5 520/2/5
f 522/2/5 519/2/5 518/2/5
f 523/2/5 519/2/5 522/2/5
f 526/2/5 525/2/5 524/2/5
f 527/2/5 525/2/5 526/2/5
f 530/2/5 529/2/5 528/2/5
f 531/2/5 529/2/5 530/2/5
f 534/2/5 533/2/5 532/2/5
f 535/2/5 533/2/5 534/2/5
f 538/2/5 537/2/5 536/2/5
f 539/2/5 537/2/5 538/2/5
f 542/2/5 541/2/5 540/2/5
f 543/2/5 541/2/5 542/2/5
f 548/2/5 545/2/5 544/2/5
f 549/2/5 545/2/5 548/2/5
f 550/2/5 547/2/5 546/2/5
f 551/2/5 547/2/5 550/2/5
f 557/3/5 553/3/5 552/3/5
f 558/3/5 553/3/5 557/3/5
f 559/3/5 555/3/5 554/3/5
f 560/3/5 555/3/5 559/3/5
f 562/1/5 557/1/5 556/1/5
f 563/1/5 557/1/5 562/1/5
f 564/1/5 561/1/5 560/1/5
f 565/1/5 561/1/5 564/1/5
f 566/2/5 563/2/5 562/2/5
f 567/2/5 563/2/5 566/2/5
f 568/2/5 565/2/5 564/2/5
f 569/2/5 565/2/5 568/2/5
f 580/3/5 571/3/5 570/3/5
f 581/3/5 571/3/5 580/3/5
f 582/3/5 573/3/5 572/3/5
f 583/3/5 573/3/5 582/3/5
f 584/3/5 575/3/5 574/3/5
f 585/3/5 575/3/5 584/3/5
f 586/3/5 577/3/5 576/3/5
f 587/3/5 577/3/5 586/3/5
f 588/3/5 579/3/5 578/3/5
f 589/3/5 579/3/5 588/3/5
f 592/3/5 591/3/5 590/3/5
f 593/3/5 591/3/5 592/3/5
f 598/3/5 595/3/5 594/3/5
f 599/3/5 595/3/5 598/3/5
f 600/3/5 597/3/5 596/3/5
f 601/3/5 597/3/5 600/3/5
f 602/3/6 603/3/6 606/3/6
f 606/3/6 603/3/6 607/3/6
f 604/3/6 605/3/6 608/3/6
f 608/3/6 605/3/6 609/3/6
f 610/3/6 611/3/6 612/3/6
f 612/3/6 611/3/6 613/3/6
f 614/3/6 615/3/6 622/3/6
f 622/3/6 615/3/6 623/3/6
f 616/3/6 617/3/6 624/3/6
f 624/3/6 617/3/6 625/3/6
f 618/3/6 619/3/6 626/3/6
f 626/3/6 619/3/6 627/3/6
f 620/3/6 621/3/6 628/3/6
f 628/3/6 621/3/6 629/3/6
f 630/3/6 631/3/6 637/3/6
f 637/3/6 631/3/6 638/3/6
f 632/3/6 633/3/6 639/3/6
f 639/3/6 633/3/6 640/3/6
f 634/3/6 635/3/6 642/3/6
f 642/3/6 635/3/6 643/3/6
f 636/1/6 637/1/6 645/1/6
f 645/1/6 637/1/6 646/1/6
f 643/1/6 644/1/6 647/1/6
f 642/1/6 643/1/6 647/1/6
f 641/1/6 642/1/6 647/1/6
f 647/1/6 644/1/6 648/1/6
f 648/1/6 644/1/6 649/1/6
f 645/2/6 646/2/6 650/2/6
f 650/2/6 646/2/6 651/2/6
f 648/2/6 649/2/6 652/2/6
f 652/2/6 649/2/6 653/2/6
f 654/2/6 655/2/6 658/2/6
f 658/2/6 655/2/6 659/2/6
f 656/2/6 657/2/6 660/2/6
f 660/2/6 657/2/6 661/2/6
f 662/2/6 663/2/6 666/2/6
f 666/2/6 663/2/6 667/2/6
f 664/2/6 665/2/6 668/2/6
f 668/2/6 665/2/6 669/2/6
f 670/2/6 671/2/6 674/2/6
f 674/2/6 671/2/6 675/2/6
f 672/2/6 673/2/6 676/2/6
f 676/2/6 673/2/6 677/2/6
f 678/2/6 679/2/6 682/2/6
f 682/2/6 679/2/6 683/2/6
f 680/2/6 681/2/6 684/2/6
f 684/2/6 681/2/6 685/2/6
f 686/2/6 687/2/6 690/2/6
f 690/2/6 687/2/6 691/2/6
f 688/2/6 689/2/6 692/2/6
f 692/2/6 689/2/6 693/2/6
f 694/3/6 695/3/6 699/3/6
f 699/3/6 695/3/6 700/3/6
f 696/3/6 697/3/6 701/3/6
f 701/3/6 697/3/6 702/3/6
f 699/1/6 700/1/6 703/1/6
f 698/2/6 699/2/6 703/2/6
f 703/1/6 700/1/6 704/1/6
f 701/1/6 702/1/6 705/1/6
f 705/1/6 702/1/6 706/1/6
f 698/2/6 703/2/6 708/2/6
f 708/2/6 703/2/6 709/2/6
f 706/2/6 707/2/6 710/2/6
f 710/2/6 707/2/6 711/2/6
f 712/3/6 713/3/6 714/3/6
f 714/3/6 713/3/6 715/3/6
f 714/1/6 715/1/6 717/1/6
f 717/1/6 715/1/6 718/1/6
f 717/2/6 718/2/6 720/2/6
f 718/2/6 719/2/6 720/2/6
f 716/2/6 717/2/6 720/2/6
f 720/2/6 719/2/6 721/2/6
